<?xml version="1.0" standalone="no"?><svg xmlns="http://www.w3.org/2000/svg" viewBox="0 0 1440 320"><path fill="#efbc2b" fill-opacity="1" d="M0,160L34.3,165.3C68.6,171,137,181,206,202.7C274.3,224,343,256,411,277.3C480,299,549,309,617,293.3C685.7,277,754,235,823,224C891.4,213,960,235,1029,250.7C1097.1,267,1166,277,1234,277.3C1302.9,277,1371,267,1406,261.3L1440,256L1440,320L1405.7,320C1371.4,320,1303,320,1234,320C1165.7,320,1097,320,1029,320C960,320,891,320,823,320C754.3,320,686,320,617,320C548.6,320,480,320,411,320C342.9,320,274,320,206,320C137.1,320,69,320,34,320L0,320Z"></path></svg>